#N canvas 597 24 683 669 10;
#X msg 365 114 \; pd-vibratos clear;
#X obj 278 18 bng 25 250 50 0 empty empty empty 17 7 0 10 -262144 -1
-1;
#X obj 277 63 t b b b b;
#X obj 282 126 i 0;
#X floatatom 28 80 5 0 0 0 - - -, f 5;
#X obj 141 167 i 0;
#X obj 102 122 t b f f;
#X obj 138 209 uzi;
#X obj 138 186 t b f;
#X obj 96 399 pack;
#X obj 96 433 list;
#X obj 95 356 expr (($f1-1) % 10)*25 + 100;
#X obj 230 338 expr $f1*$f2;
#X floatatom 250 263 5 0 0 0 - - -, f 5;
#X obj 229 302 pack;
#X obj 250 219 loadbang;
#X obj 96 378 expr (($i1-1) / 10)*150 + 100;
#X text 283 262 freq fundamental;
#X obj 32 346 + 2;
#X obj 167 233 t f f f f f;
#X obj 96 471 list append;
#N canvas 32 31 537 705 vibratos 1;
#X obj 100 500 s~ 1004-master;
#X obj 100 480 /~ 0;
#X obj 50 50 r 1004-vib_range;
#X connect 1 0 0 0;
#X restore 436 76 pd vibratos;
#X obj 443 436 r~ \$0-master;
#X obj 441 587 dac~;
#X obj 283 368 + 2;
#X floatatom 543 414 5 0 0 0 - - -, f 5;
#X text 66 79 Number of partials;
#X floatatom 280 483 5 0 0 0 - - -, f 5;
#X obj 280 439 loadbang;
#X obj 96 511 list append;
#X text 313 482 freq vibrato;
#X msg 96 560 \; pd-vibratos obj \$1 \$2 vibrato_instance \$3 \$5 \;
pd-vibratos connect \$4 0 1 0 \; pd-vibratos connect 2 0 \$4 0;
#X msg 280 461 7;
#X obj 346 46 loadbang;
#X obj 480 523 tgl 15 0 empty empty empty 17 7 0 10 -262144 -1 -1 0
1;
#X obj 444 553 *~;
#X obj 479 479 loadbang;
#X obj 543 437 s \$0-vib_range;
#X msg 317 152 \; pd-vibratos obj 100 500 s~ \$0-master \; pd-vibratos
obj 100 480 /~ \$1 \; pd-vibratos connect 1 0 0 0 \; pd-vibratos obj
50 50 r \$0-vib_range;
#X msg 479 501 0;
#X text 500 522 click here to begin sound;
#X text 309 20 bang here to generate partials;
#X text 508 74 subpatch with the partials;
#X msg 250 241 200;
#X obj 29 32 loadbang;
#X msg 32 57 17;
#X obj 417 296 loadbang;
#X msg 417 318;
#X connect 1 0 2 0;
#X connect 2 1 5 0;
#X connect 2 2 3 0;
#X connect 2 3 0 0;
#X connect 3 0 38 0;
#X connect 4 0 6 0;
#X connect 5 0 8 0;
#X connect 6 0 1 0;
#X connect 6 1 3 1;
#X connect 6 2 5 1;
#X connect 7 2 19 0;
#X connect 8 0 7 0;
#X connect 8 1 7 1;
#X connect 9 0 10 0;
#X connect 10 0 20 0;
#X connect 11 0 9 1;
#X connect 12 0 10 1;
#X connect 13 0 14 1;
#X connect 14 0 12 0;
#X connect 15 0 43 0;
#X connect 16 0 9 0;
#X connect 19 0 18 0;
#X connect 19 1 16 0;
#X connect 19 2 11 0;
#X connect 19 3 14 0;
#X connect 19 4 24 0;
#X connect 20 0 29 0;
#X connect 22 0 35 0;
#X connect 24 0 20 1;
#X connect 25 0 37 0;
#X connect 27 0 29 1;
#X connect 28 0 32 0;
#X connect 29 0 31 0;
#X connect 32 0 27 0;
#X connect 33 0 1 0;
#X connect 34 0 35 1;
#X connect 35 0 23 0;
#X connect 35 0 23 1;
#X connect 36 0 39 0;
#X connect 39 0 34 0;
#X connect 43 0 13 0;
#X connect 44 0 45 0;
#X connect 45 0 4 0;
#X connect 46 0 47 0;
