#N canvas 1 41 958 1015 10;
#X msg 511 83 \; pd-vibratos clear;
#X obj 278 18 bng 25 250 50 0 empty empty empty 17 7 0 10 -262144 -1
-1;
#X obj 277 63 t b b b b;
#X obj 317 88 i 0;
#X floatatom 28 80 5 0 0 0 - - -, f 5;
#X obj 141 167 i 0;
#X obj 102 122 t b f f;
#X obj 138 186 t b f;
#X obj 96 399 pack;
#X obj 96 433 list;
#X obj 95 356 expr (($f1-1) % 10)*25 + 100;
#X floatatom 185 195 5 0 0 0 - - -, f 5;
#X obj 229 302 pack;
#X obj 185 151 loadbang;
#X text 218 194 freq fundamental;
#X obj 32 346 + 2;
#X obj 96 471 list append;
#X obj 284 828 dac~;
#X obj 283 368 + 2;
#X floatatom 740 778 5 0 0 0 - - -, f 5;
#X text 66 79 Number of partials;
#X floatatom 210 488 5 0 0 0 - - -, f 5;
#X obj 210 444 loadbang;
#X obj 96 511 list append;
#X text 243 487 freq vibrato;
#X msg 210 466 7;
#X obj 346 46 loadbang;
#X obj 422 571 tgl 15 0 empty empty empty 17 7 0 10 -4076 -1 -1 0 1
;
#X obj 290 782 *~;
#X obj 421 527 loadbang;
#X obj 740 801 s \$0-vib_range;
#X msg 421 549 0;
#X text 442 570 click here to begin sound;
#X text 309 20 bang here to generate partials;
#X obj 29 32 loadbang;
#X msg 32 57 17;
#X obj 417 296 loadbang;
#X msg 417 318;
#X obj 138 209 Uzi;
#N canvas 961 41 958 331 out 0;
#N canvas 961 41 958 508 vibratos 1;
#X obj 100 500 outlet~;
#X obj 100 480 /~ 17;
#X obj 50 50 r 1003-vib_range;
#X obj 100 100 vibrato_instance 800 7 1;
#X obj 100 125 vibrato_instance 1600 7 0.716531;
#X obj 100 150 vibrato_instance 2400 7 0.513417;
#X obj 100 175 vibrato_instance 3200 7 0.367879;
#X obj 100 200 vibrato_instance 4000 7 0.263597;
#X obj 100 225 vibrato_instance 4800 7 0.188876;
#X obj 100 250 vibrato_instance 5600 7 0.135335;
#X obj 100 275 vibrato_instance 6400 7 0.096972;
#X obj 100 300 vibrato_instance 7200 7 0.0694834;
#X obj 100 325 vibrato_instance 8000 7 0.0497871;
#X obj 350 100 vibrato_instance 8800 7 0.035674;
#X obj 350 125 vibrato_instance 9600 7 0.0255615;
#X obj 350 150 vibrato_instance 10400 7 0.0183156;
#X obj 350 175 vibrato_instance 11200 7 0.0131237;
#X obj 350 200 vibrato_instance 12000 7 0.00940356;
#X obj 350 225 vibrato_instance 12800 7 0.00673795;
#X obj 350 250 vibrato_instance 13600 7 0.00482795;
#X connect 1 0 0 0;
#X connect 2 0 3 0;
#X connect 2 0 4 0;
#X connect 2 0 5 0;
#X connect 2 0 6 0;
#X connect 2 0 7 0;
#X connect 2 0 8 0;
#X connect 2 0 9 0;
#X connect 2 0 10 0;
#X connect 2 0 11 0;
#X connect 2 0 12 0;
#X connect 2 0 13 0;
#X connect 2 0 14 0;
#X connect 2 0 15 0;
#X connect 2 0 16 0;
#X connect 2 0 17 0;
#X connect 2 0 18 0;
#X connect 2 0 19 0;
#X connect 3 0 1 0;
#X connect 4 0 1 0;
#X connect 5 0 1 0;
#X connect 6 0 1 0;
#X connect 7 0 1 0;
#X connect 8 0 1 0;
#X connect 9 0 1 0;
#X connect 10 0 1 0;
#X connect 11 0 1 0;
#X connect 12 0 1 0;
#X connect 13 0 1 0;
#X connect 14 0 1 0;
#X connect 15 0 1 0;
#X connect 16 0 1 0;
#X connect 17 0 1 0;
#X connect 18 0 1 0;
#X connect 19 0 1 0;
#X restore 70 69 pd vibratos;
#X obj 70 117 outlet~;
#X text 145 68 subpatch with the partials;
#X connect 0 0 1 0;
#X restore 286 758 pd out;
#X msg 350 111 \; pd-vibratos obj 100 500 outlet~ \; pd-out connect
0 0 1 0 \; pd-vibratos obj 100 480 /~ \$1 \; pd-vibratos connect 1
0 0 0 \; pd-vibratos obj 50 50 r \$0-vib_range;
#X text 332 758 <- pd vibratos subpatch inside;
#X obj 521 800 writesf~;
#X msg 605 765 start;
#X msg 567 765 stop;
#X obj 567 689 gate;
#X obj 525 658 tgl 15 0 empty empty empty 17 7 0 10 -135113 -1 -1 1
1;
#X obj 567 716 tgl 15 0 empty empty empty 17 7 0 10 -262144 -1 -1 0
1;
#X obj 568 739 sel 1;
#X msg 185 173 800;
#X obj 167 233 t f f f f f f;
#X obj 96 567 list append;
#X obj 96 378 expr (($i1-1) / 10)*250 + 100;
#X msg 95 601 \; pd-vibratos obj \$1 \$2 vibrato_instance \$3 \$5 \$6
\; pd-vibratos connect \$4 0 1 0 \; pd-vibratos connect 2 0 \$4 0;
#X obj 216 529 expr exp((-$f1+1)/3);
#X obj 743 435 counter;
#X floatatom 743 457 5 0 0 0 - - -, f 5;
#X obj 743 378 metro 1000;
#X obj 657 312 tgl 35 0 empty empty empty 17 7 0 10 -259024 -1 -1 0
1;
#X obj 770 404 sel 0;
#X msg 569 297 0;
#X msg 571 258 bang;
#X obj 570 279 delay 11000;
#X text 774 778 <- Change vibrato amplitude;
#X text 702 331 of an increasing vibrato;
#X text 702 310 Click here to play 11 seconds;
#X text 550 656 click here to record sound;
#X text 519 606 name of the soundfile to record;
#X obj 232 330 expr $f1*$f2;
#X obj 743 481 * 30;
#X msg 519 627 open vibrato_0_300_30_linear.wav;
#X connect 1 0 2 0;
#X connect 2 1 5 0;
#X connect 2 2 3 0;
#X connect 2 3 0 0;
#X connect 3 0 40 0;
#X connect 4 0 6 0;
#X connect 5 0 7 0;
#X connect 6 0 1 0;
#X connect 6 1 3 1;
#X connect 6 2 5 1;
#X connect 7 0 38 0;
#X connect 7 1 38 1;
#X connect 8 0 9 0;
#X connect 9 0 16 0;
#X connect 10 0 8 1;
#X connect 11 0 12 1;
#X connect 12 0 68 0;
#X connect 13 0 49 0;
#X connect 16 0 23 0;
#X connect 18 0 16 1;
#X connect 19 0 30 0;
#X connect 21 0 23 1;
#X connect 22 0 25 0;
#X connect 23 0 51 0;
#X connect 25 0 21 0;
#X connect 26 0 1 0;
#X connect 27 0 28 1;
#X connect 27 0 45 1;
#X connect 28 0 17 0;
#X connect 28 0 17 1;
#X connect 28 0 42 0;
#X connect 29 0 31 0;
#X connect 31 0 27 0;
#X connect 34 0 35 0;
#X connect 35 0 4 0;
#X connect 36 0 37 0;
#X connect 38 2 50 0;
#X connect 39 0 28 0;
#X connect 43 0 42 0;
#X connect 44 0 42 0;
#X connect 45 0 47 0;
#X connect 46 0 45 0;
#X connect 47 0 48 0;
#X connect 48 0 43 0;
#X connect 48 1 44 0;
#X connect 49 0 11 0;
#X connect 50 0 15 0;
#X connect 50 1 52 0;
#X connect 50 2 10 0;
#X connect 50 3 12 0;
#X connect 50 4 18 0;
#X connect 50 5 54 0;
#X connect 51 0 53 0;
#X connect 52 0 8 0;
#X connect 54 0 51 1;
#X connect 55 0 56 0;
#X connect 56 0 69 0;
#X connect 57 0 55 0;
#X connect 58 0 59 0;
#X connect 58 0 57 0;
#X connect 58 0 27 0;
#X connect 58 0 61 0;
#X connect 59 0 55 2;
#X connect 60 0 58 0;
#X connect 61 0 62 0;
#X connect 62 0 60 0;
#X connect 68 0 9 1;
#X connect 69 0 19 0;
#X connect 70 0 42 0;
