#N canvas 1 41 958 1015 10;
#X obj 46 163 osc~;
#X obj 134 61 inlet;
#X obj 47 320 outlet~;
#X obj 110 98 *~ 0;
#X obj 45 127 +~ \$1;
#X obj 74 57 osc~ \$2;
#X obj 128 246 *~ \$3;
#X connect 0 0 6 0;
#X connect 1 0 3 1;
#X connect 3 0 4 0;
#X connect 4 0 0 0;
#X connect 5 0 3 0;
#X connect 6 0 2 0;
